<?xml version="1.0" standalone="no"?>
<svg xmlns:xlink="http://www.w3.org/1999/xlink" id="wave" style="transform:rotate(180deg); transition: 0.3s" viewBox="0 0 1440 380" version="1.1" xmlns="http://www.w3.org/2000/svg"><defs><linearGradient id="sw-gradient-0" x1="0" x2="0" y1="1" y2="0"><stop stop-color="rgba(19, 86, 81, 1)" offset="0%"/><stop stop-color="rgba(124, 203, 191, 1)" offset="100%"/></linearGradient></defs><path style="transform:translate(0, 0px); opacity:1" fill="url(#sw-gradient-0)" d="M0,304L120,297.7C240,291,480,279,720,234.3C960,190,1200,114,1440,114C1680,114,1920,190,2160,221.7C2400,253,2640,241,2880,215.3C3120,190,3360,152,3600,133C3840,114,4080,114,4320,139.3C4560,165,4800,215,5040,196.3C5280,177,5520,89,5760,88.7C6000,89,6240,177,6480,215.3C6720,253,6960,241,7200,215.3C7440,190,7680,152,7920,114C8160,76,8400,38,8640,38C8880,38,9120,76,9360,82.3C9600,89,9840,63,10080,82.3C10320,101,10560,165,10800,183.7C11040,203,11280,177,11520,152C11760,127,12000,101,12240,95C12480,89,12720,101,12960,126.7C13200,152,13440,190,13680,190C13920,190,14160,152,14400,133C14640,114,14880,114,15120,114C15360,114,15600,114,15840,145.7C16080,177,16320,241,16560,221.7C16800,203,17040,101,17160,50.7L17280,0L17280,380L17160,380C17040,380,16800,380,16560,380C16320,380,16080,380,15840,380C15600,380,15360,380,15120,380C14880,380,14640,380,14400,380C14160,380,13920,380,13680,380C13440,380,13200,380,12960,380C12720,380,12480,380,12240,380C12000,380,11760,380,11520,380C11280,380,11040,380,10800,380C10560,380,10320,380,10080,380C9840,380,9600,380,9360,380C9120,380,8880,380,8640,380C8400,380,8160,380,7920,380C7680,380,7440,380,7200,380C6960,380,6720,380,6480,380C6240,380,6000,380,5760,380C5520,380,5280,380,5040,380C4800,380,4560,380,4320,380C4080,380,3840,380,3600,380C3360,380,3120,380,2880,380C2640,380,2400,380,2160,380C1920,380,1680,380,1440,380C1200,380,960,380,720,380C480,380,240,380,120,380L0,380Z"/></svg>